<svg width="24" height="24" viewBox="0 0 24 24" fill="none" xmlns="http://www.w3.org/2000/svg">
<path fill-rule="evenodd" clip-rule="evenodd" d="M17.44 6.2364C17.48 6.30633 17.55 6.35627 17.64 6.35627C20.04 6.35627 22 8.3141 22 10.7114V16.6448C22 19.0422 20.04 21 17.64 21H6.36C3.95 21 2 19.0422 2 16.6448V10.7114C2 8.3141 3.95 6.35627 6.36 6.35627C6.44 6.35627 6.52 6.31632 6.55 6.2364L6.61 6.11654C6.64448 6.04397 6.67987 5.96943 6.71579 5.89376C6.97161 5.35492 7.25463 4.75879 7.43 4.40844C7.89 3.50943 8.67 3.00999 9.64 3H14.35C15.32 3.00999 16.11 3.50943 16.57 4.40844C16.7275 4.72308 16.9674 5.2299 17.1987 5.71839C17.2464 5.81921 17.2938 5.91924 17.34 6.01665L17.44 6.2364ZM18 9.00552C18 9.55801 18.442 10 18.9945 10C19.547 10 20 9.55801 20 9.00552C20 8.45304 19.547 8 18.9945 8C18.442 8 18 8.45304 18 9.00552ZM9.8645 11.8889C10.4447 11.3086 11.1978 11 12.0002 11C12.8026 11 13.5556 11.3086 14.1235 11.8765C14.6914 12.4444 15 13.1975 15 14C14.9877 15.6543 13.6544 17 12.0002 17C11.1978 17 10.4447 16.6914 9.87685 16.1235C9.30898 15.5556 9.00036 14.8025 9.00036 14V13.9877C8.98801 13.2099 9.29664 12.4568 9.8645 11.8889ZM15.5241 17.3654C14.6208 18.2687 13.374 18.8285 12 18.8285C10.6641 18.8285 9.41735 18.3069 8.46318 17.3654C7.52172 16.4112 7.00011 15.1644 7.00011 13.8285C6.98738 12.5053 7.509 11.2585 8.45045 10.3043C9.40463 9.35012 10.6641 8.82849 12 8.82849C13.3358 8.82849 14.5954 9.35012 15.5368 10.2916C16.4783 11.2458 16.9999 12.5053 16.9999 13.8285C16.9872 15.2153 16.4274 16.4621 15.5241 17.3654Z" fill="#F5F5FA"/>
</svg>
